<svg xmlns="http://www.w3.org/2000/svg" viewBox="0 0 900 900">
  <ellipse cx="250" cy="830" rx="130" ry="36" fill="#000" opacity="0.25"/>
  <ellipse cx="470" cy="850" rx="150" ry="40" fill="#000" opacity="0.28"/>
  <ellipse cx="690" cy="830" rx="130" ry="36" fill="#000" opacity="0.25"/>

  <!-- left -->
  <path d="M185 410c12-100 58-155 100-155s88 55 100 155v280H185V410Z" fill="#3d4499"/>
  <circle cx="285" cy="240" r="78" fill="#f0c2a0"/>
  <path d="M210 215c24-78 78-105 135-88 34 56 22 122-14 155-44-12-88-24-121-67Z" fill="#1d1d1d"/>
  <path d="M215 515h140l22 175H193L215 515Z" fill="#ffffff"/>
  <rect x="165" y="495" width="95" height="125" rx="12" fill="#222" transform="rotate(-10 212 557)"/>
  <rect x="174" y="506" width="77" height="103" rx="8" fill="#7ec8ff" transform="rotate(-10 212 557)"/>

  <!-- center -->
  <path d="M370 365c10-120 58-185 110-185s100 65 110 185v340H370V365Z" fill="#1f7a52"/>
  <circle cx="480" cy="195" r="88" fill="#f0c2a0"/>
  <path d="M395 170c28-88 95-120 155-98 38 60 26 138-18 175-48-14-98-28-137-77Z" fill="#222"/>
  <path d="M345 420c45-34 90-50 155-50s110 16 155 50l-22 90H367l-22-90Z" fill="#14563a"/>
  <rect x="425" y="470" width="110" height="250" rx="18" fill="#176645"/>

  <!-- right -->
  <path d="M610 410c12-105 60-162 105-162s93 57 105 162v280H610V410Z" fill="#7a35b8"/>
  <circle cx="715" cy="235" r="80" fill="#f0c2a0"/>
  <path d="M640 208c26-82 88-112 145-90 35 58 24 128-14 164-46-12-92-26-131-74Z" fill="#4a281f"/>
  <path d="M625 515h160l18 175H607L625 515Z" fill="#f4eaff"/>
</svg>
