<svg xmlns="http://www.w3.org/2000/svg" viewBox="0 0 800 500">
  <defs>
    <linearGradient id="a" x1="0" y1="0" x2="800" y2="500" gradientUnits="userSpaceOnUse">
      <stop stop-color="#9ec5ff"/>
      <stop offset="1" stop-color="#e8f1ff"/>
    </linearGradient>
  </defs>
  <rect width="800" height="500" fill="url(#a)"/>
  <rect x="0" y="360" width="800" height="140" fill="#d7e3f5"/>
  <rect x="90" y="150" width="140" height="230" fill="#16306f"/>
  <rect x="260" y="100" width="180" height="280" fill="#0b1f4d"/>
  <rect x="470" y="170" width="160" height="210" fill="#2f6fe4"/>
  <rect x="660" y="210" width="90" height="170" fill="#003e97"/>
  <g fill="#9ec5ff" opacity="0.85">
    <rect x="110" y="180" width="28" height="28"/><rect x="150" y="180" width="28" height="28"/>
    <rect x="110" y="230" width="28" height="28"/><rect x="150" y="230" width="28" height="28"/>
    <rect x="110" y="280" width="28" height="28"/><rect x="150" y="280" width="28" height="28"/>
    <rect x="290" y="140" width="30" height="30"/><rect x="340" y="140" width="30" height="30"/>
    <rect x="290" y="200" width="30" height="30"/><rect x="340" y="200" width="30" height="30"/>
    <rect x="290" y="260" width="30" height="30"/><rect x="340" y="260" width="30" height="30"/>
    <rect x="500" y="200" width="28" height="28"/><rect x="545" y="200" width="28" height="28"/>
    <rect x="500" y="250" width="28" height="28"/><rect x="545" y="250" width="28" height="28"/>
  </g>
  <path d="M260 100l90-40 90 40" stroke="#e1009a" stroke-width="8" fill="none"/>
</svg>
